<mxfile host="app.diagrams.net" modified="2024-02-22T21:46:34.157Z" agent="Mozilla/5.0 (Windows NT 10.0; Win64; x64) AppleWebKit/537.36 (KHTML, like Gecko) Chrome/121.0.0.0 Safari/537.36" etag="qhbnUqF6wjavg5eVHMgq" version="23.0.2" type="github">
  <diagram name="Page-1" id="aGlDT4gQel6WEY8hl9SQ">
    <mxGraphModel dx="4700" dy="1873" grid="1" gridSize="10" guides="1" tooltips="1" connect="1" arrows="1" fold="1" page="0" pageScale="1" pageWidth="827" pageHeight="1169" math="0" shadow="0">
      <root>
        <mxCell id="0" />
        <mxCell id="1" parent="0" />
        <mxCell id="uM8lYK9Wjvyg9yVoM1x_-1" value="" style="image;sketch=0;aspect=fixed;html=1;points=[];align=center;fontSize=12;image=img/lib/mscae/Azure_Repos.svg;" parent="1" vertex="1">
          <mxGeometry x="118" y="270" width="126" height="140" as="geometry" />
        </mxCell>
        <mxCell id="uM8lYK9Wjvyg9yVoM1x_-3" value="" style="rounded=0;whiteSpace=wrap;html=1;" parent="1" vertex="1">
          <mxGeometry x="590" y="140" width="940" height="470" as="geometry" />
        </mxCell>
        <mxCell id="uM8lYK9Wjvyg9yVoM1x_-2" value="" style="image;sketch=0;aspect=fixed;html=1;points=[];align=center;fontSize=12;image=img/lib/mscae/Azure_Pipelines.svg;" parent="1" vertex="1">
          <mxGeometry x="680" y="350" width="110" height="110" as="geometry" />
        </mxCell>
        <mxCell id="uM8lYK9Wjvyg9yVoM1x_-11" value="" style="outlineConnect=0;dashed=0;verticalLabelPosition=bottom;verticalAlign=top;align=center;html=1;shape=mxgraph.aws3.users;fillColor=#031630;strokeColor=#6c8ebf;" parent="1" vertex="1">
          <mxGeometry x="-310" y="483.33" width="120" height="110" as="geometry" />
        </mxCell>
        <mxCell id="uM8lYK9Wjvyg9yVoM1x_-16" value="&lt;br&gt;&lt;span style=&quot;font-size: 21px;&quot;&gt;&lt;b&gt;Azure Repos&lt;br&gt;&lt;i&gt;[Source code management system]&lt;/i&gt;&lt;br&gt;&lt;/b&gt;&lt;/span&gt;" style="text;html=1;align=center;verticalAlign=middle;whiteSpace=wrap;rounded=0;" parent="1" vertex="1">
          <mxGeometry x="30" y="430" width="290" height="30" as="geometry" />
        </mxCell>
        <mxCell id="uM8lYK9Wjvyg9yVoM1x_-18" value="&lt;font size=&quot;1&quot; style=&quot;&quot;&gt;&lt;b style=&quot;font-size: 21px;&quot;&gt;Azure Build Pipeline &lt;i&gt;[Continues Integration]&lt;/i&gt;&amp;nbsp;&lt;/b&gt;&lt;/font&gt;" style="text;html=1;align=center;verticalAlign=middle;whiteSpace=wrap;rounded=0;" parent="1" vertex="1">
          <mxGeometry x="610" y="483.33" width="280" height="30" as="geometry" />
        </mxCell>
        <mxCell id="uM8lYK9Wjvyg9yVoM1x_-29" style="edgeStyle=orthogonalEdgeStyle;rounded=0;orthogonalLoop=1;jettySize=auto;html=1;entryX=0.029;entryY=0.426;entryDx=0;entryDy=0;entryPerimeter=0;" parent="1" source="uM8lYK9Wjvyg9yVoM1x_-20" target="uM8lYK9Wjvyg9yVoM1x_-41" edge="1">
          <mxGeometry relative="1" as="geometry">
            <mxPoint x="1785" y="380" as="sourcePoint" />
            <mxPoint x="1760" y="820" as="targetPoint" />
          </mxGeometry>
        </mxCell>
        <mxCell id="uM8lYK9Wjvyg9yVoM1x_-56" value="&lt;font style=&quot;font-size: 14px;&quot;&gt;&lt;b&gt;Executes ansible automation&amp;nbsp;&lt;/b&gt;&lt;/font&gt;" style="edgeLabel;html=1;align=center;verticalAlign=middle;resizable=0;points=[];" parent="uM8lYK9Wjvyg9yVoM1x_-29" vertex="1" connectable="0">
          <mxGeometry x="0.5624" y="2" relative="1" as="geometry">
            <mxPoint x="-2" y="19" as="offset" />
          </mxGeometry>
        </mxCell>
        <mxCell id="uM8lYK9Wjvyg9yVoM1x_-20" value="" style="image;sketch=0;aspect=fixed;html=1;points=[];align=center;fontSize=12;image=img/lib/mscae/Azure_Pipelines.svg;" parent="1" vertex="1">
          <mxGeometry x="1320" y="360" width="110" height="110" as="geometry" />
        </mxCell>
        <mxCell id="uM8lYK9Wjvyg9yVoM1x_-21" value="&lt;font size=&quot;1&quot; style=&quot;&quot;&gt;&lt;b style=&quot;font-size: 21px;&quot;&gt;Azure Build Pipeline &lt;i&gt;[Continues Deployment]&lt;/i&gt;&amp;nbsp;&lt;/b&gt;&lt;/font&gt;" style="text;html=1;align=center;verticalAlign=middle;whiteSpace=wrap;rounded=0;" parent="1" vertex="1">
          <mxGeometry x="1240" y="500" width="280" height="50" as="geometry" />
        </mxCell>
        <mxCell id="uM8lYK9Wjvyg9yVoM1x_-24" value="&lt;font size=&quot;1&quot; style=&quot;&quot;&gt;&lt;b style=&quot;font-size: 21px;&quot;&gt;Azure Artifacts&amp;nbsp;&lt;br&gt;&lt;i&gt;[Binary &amp;amp; Packages]&lt;/i&gt;&amp;nbsp;&lt;/b&gt;&lt;/font&gt;" style="text;html=1;align=center;verticalAlign=middle;whiteSpace=wrap;rounded=0;" parent="1" vertex="1">
          <mxGeometry x="900" y="350" width="280" height="30" as="geometry" />
        </mxCell>
        <mxCell id="uM8lYK9Wjvyg9yVoM1x_-13" value="" style="image;sketch=0;aspect=fixed;html=1;points=[];align=center;fontSize=12;image=img/lib/mscae/Azure_Artifacts.svg;" parent="1" vertex="1">
          <mxGeometry x="980" y="210" width="120" height="120" as="geometry" />
        </mxCell>
        <mxCell id="uM8lYK9Wjvyg9yVoM1x_-25" style="edgeStyle=orthogonalEdgeStyle;rounded=0;orthogonalLoop=1;jettySize=auto;html=1;entryX=-0.019;entryY=0.562;entryDx=0;entryDy=0;entryPerimeter=0;" parent="1" source="uM8lYK9Wjvyg9yVoM1x_-2" target="uM8lYK9Wjvyg9yVoM1x_-13" edge="1">
          <mxGeometry relative="1" as="geometry">
            <Array as="points">
              <mxPoint x="740" y="279" />
            </Array>
          </mxGeometry>
        </mxCell>
        <mxCell id="uM8lYK9Wjvyg9yVoM1x_-54" value="&lt;font style=&quot;font-size: 14px;&quot;&gt;&lt;b&gt;Publish Artifacts&lt;/b&gt;&lt;/font&gt;" style="edgeLabel;html=1;align=center;verticalAlign=middle;resizable=0;points=[];" parent="uM8lYK9Wjvyg9yVoM1x_-25" vertex="1" connectable="0">
          <mxGeometry x="0.0257" relative="1" as="geometry">
            <mxPoint as="offset" />
          </mxGeometry>
        </mxCell>
        <mxCell id="uM8lYK9Wjvyg9yVoM1x_-12" style="edgeStyle=orthogonalEdgeStyle;rounded=0;orthogonalLoop=1;jettySize=auto;html=1;" parent="1" source="uM8lYK9Wjvyg9yVoM1x_-1" target="uM8lYK9Wjvyg9yVoM1x_-2" edge="1">
          <mxGeometry relative="1" as="geometry" />
        </mxCell>
        <mxCell id="uM8lYK9Wjvyg9yVoM1x_-26" style="edgeStyle=orthogonalEdgeStyle;rounded=0;orthogonalLoop=1;jettySize=auto;html=1;entryX=0.589;entryY=-0.083;entryDx=0;entryDy=0;entryPerimeter=0;" parent="1" source="uM8lYK9Wjvyg9yVoM1x_-13" target="uM8lYK9Wjvyg9yVoM1x_-20" edge="1">
          <mxGeometry relative="1" as="geometry">
            <Array as="points">
              <mxPoint x="1391" y="280" />
            </Array>
          </mxGeometry>
        </mxCell>
        <mxCell id="uM8lYK9Wjvyg9yVoM1x_-27" value="" style="image;sketch=0;aspect=fixed;html=1;points=[];align=center;fontSize=12;image=img/lib/mscae/Azure_DevOps.svg;" parent="1" vertex="1">
          <mxGeometry x="610" y="150" width="60" height="60" as="geometry" />
        </mxCell>
        <mxCell id="uM8lYK9Wjvyg9yVoM1x_-41" value="" style="rounded=1;whiteSpace=wrap;html=1;" parent="1" vertex="1">
          <mxGeometry x="2070" y="58.33" width="690" height="880" as="geometry" />
        </mxCell>
        <mxCell id="uM8lYK9Wjvyg9yVoM1x_-43" value="&lt;font style=&quot;font-size: 21px;&quot;&gt;&lt;b&gt;Users&amp;nbsp;&lt;/b&gt;&lt;/font&gt;" style="text;html=1;align=center;verticalAlign=middle;whiteSpace=wrap;rounded=0;" parent="1" vertex="1">
          <mxGeometry x="-290" y="610" width="60" height="30" as="geometry" />
        </mxCell>
        <mxCell id="uM8lYK9Wjvyg9yVoM1x_-45" style="edgeStyle=orthogonalEdgeStyle;rounded=0;orthogonalLoop=1;jettySize=auto;html=1;entryX=0.006;entryY=0.506;entryDx=0;entryDy=0;entryPerimeter=0;" parent="1" source="uM8lYK9Wjvyg9yVoM1x_-11" target="uM8lYK9Wjvyg9yVoM1x_-1" edge="1">
          <mxGeometry relative="1" as="geometry" />
        </mxCell>
        <mxCell id="uM8lYK9Wjvyg9yVoM1x_-52" value="&lt;b&gt;&lt;font style=&quot;font-size: 14px;&quot;&gt;commits&lt;/font&gt;&lt;/b&gt;" style="edgeLabel;html=1;align=center;verticalAlign=middle;resizable=0;points=[];" parent="uM8lYK9Wjvyg9yVoM1x_-45" vertex="1" connectable="0">
          <mxGeometry x="-0.0406" y="-1" relative="1" as="geometry">
            <mxPoint y="-1" as="offset" />
          </mxGeometry>
        </mxCell>
        <mxCell id="uM8lYK9Wjvyg9yVoM1x_-53" value="&lt;span style=&quot;font-size: 14px;&quot;&gt;&lt;b&gt;Trigger build&lt;/b&gt;&lt;/span&gt;" style="edgeLabel;html=1;align=center;verticalAlign=middle;resizable=0;points=[];" parent="1" vertex="1" connectable="0">
          <mxGeometry x="450.000909090909" y="380.00272727272727" as="geometry">
            <mxPoint x="15" y="-13" as="offset" />
          </mxGeometry>
        </mxCell>
        <mxCell id="uM8lYK9Wjvyg9yVoM1x_-55" value="&lt;span style=&quot;font-size: 14px;&quot;&gt;&lt;b&gt;Pull Artifacts&lt;/b&gt;&lt;/span&gt;" style="edgeLabel;html=1;align=center;verticalAlign=middle;resizable=0;points=[];" parent="1" vertex="1" connectable="0">
          <mxGeometry x="1240.0009090909089" y="290.00272727272727" as="geometry">
            <mxPoint x="15" y="-13" as="offset" />
          </mxGeometry>
        </mxCell>
        <mxCell id="uM8lYK9Wjvyg9yVoM1x_-60" style="edgeStyle=orthogonalEdgeStyle;rounded=0;orthogonalLoop=1;jettySize=auto;html=1;exitX=0.5;exitY=1;exitDx=0;exitDy=0;" parent="1" source="uM8lYK9Wjvyg9yVoM1x_-24" target="uM8lYK9Wjvyg9yVoM1x_-24" edge="1">
          <mxGeometry relative="1" as="geometry" />
        </mxCell>
        <mxCell id="KnM2JCht_f167LQaXZ46-9" value="VPC" style="points=[[0,0],[0.25,0],[0.5,0],[0.75,0],[1,0],[1,0.25],[1,0.5],[1,0.75],[1,1],[0.75,1],[0.5,1],[0.25,1],[0,1],[0,0.75],[0,0.5],[0,0.25]];outlineConnect=0;gradientColor=none;html=1;whiteSpace=wrap;fontSize=12;fontStyle=0;container=1;pointerEvents=0;collapsible=0;recursiveResize=0;shape=mxgraph.aws4.group;grIcon=mxgraph.aws4.group_vpc2;strokeColor=#8C4FFF;fillColor=none;verticalAlign=top;align=left;spacingLeft=30;fontColor=#AAB7B8;dashed=0;" vertex="1" parent="1">
          <mxGeometry x="2110" y="110" width="610" height="403.33000000000004" as="geometry" />
        </mxCell>
        <mxCell id="KnM2JCht_f167LQaXZ46-11" value="Private subnet" style="points=[[0,0],[0.25,0],[0.5,0],[0.75,0],[1,0],[1,0.25],[1,0.5],[1,0.75],[1,1],[0.75,1],[0.5,1],[0.25,1],[0,1],[0,0.75],[0,0.5],[0,0.25]];outlineConnect=0;gradientColor=none;html=1;whiteSpace=wrap;fontSize=12;fontStyle=0;container=1;pointerEvents=0;collapsible=0;recursiveResize=0;shape=mxgraph.aws4.group;grIcon=mxgraph.aws4.group_security_group;grStroke=0;strokeColor=#00A4A6;fillColor=#E6F6F7;verticalAlign=top;align=left;spacingLeft=30;fontColor=#147EBA;dashed=0;" vertex="1" parent="KnM2JCht_f167LQaXZ46-9">
          <mxGeometry x="30" y="40" width="550" height="280" as="geometry" />
        </mxCell>
        <mxCell id="uM8lYK9Wjvyg9yVoM1x_-37" value="" style="sketch=0;points=[[0,0,0],[0.25,0,0],[0.5,0,0],[0.75,0,0],[1,0,0],[0,1,0],[0.25,1,0],[0.5,1,0],[0.75,1,0],[1,1,0],[0,0.25,0],[0,0.5,0],[0,0.75,0],[1,0.25,0],[1,0.5,0],[1,0.75,0]];outlineConnect=0;fontColor=#232F3E;fillColor=#ED7100;strokeColor=#ffffff;dashed=0;verticalLabelPosition=bottom;verticalAlign=top;align=center;html=1;fontSize=12;fontStyle=0;aspect=fixed;shape=mxgraph.aws4.resourceIcon;resIcon=mxgraph.aws4.ec2;" parent="KnM2JCht_f167LQaXZ46-11" vertex="1">
          <mxGeometry x="30" y="85.08" width="114.92" height="114.92" as="geometry" />
        </mxCell>
        <mxCell id="uM8lYK9Wjvyg9yVoM1x_-33" value="" style="shape=image;verticalLabelPosition=bottom;labelBackgroundColor=default;verticalAlign=top;aspect=fixed;imageAspect=0;image=data:image/png,iVBORw0KGgoAAAANSUhEUgAAAZcAAAB8CAMAAACSTA3KAAABIFBMVEX///8AAADuAAD39/f6+vqKior09PTt7e3m5ubNzc2ZmZm8vLzi4uKzs7Pw8PA9PT1LS0vc3NwdHR0QEBBra2tSUlJycnLU1NReXl4rKyt+fn6QkJAyMjIhISE3NzehoaHHx8dbW1uBgYGsrKwVFRWenp5OTk72AAC6urptbW1EREQLCwsmJib+9PTvDQ3+7e0AFRX6wMD2h4f1fHzwOzvyU1PvGhrbHBwAHx/3n5/xSEjzbm76ysr719f3rKzzY2P2k5OkbGwWAABsGxs/AACDJSXPFhYvGxvCGhrgkZG6ISGeNzeTHR07ICBiJyetJibGenoyEhKiAABvKSl8FxehHR1AMTFFHx9PMDDzZ2fwLCxQHh6hKSmBCwupLS3vIyOVNn7xAAATAklEQVR4nO2dd2OjSJrGKQsBklAOgBIgyUHB9rhzck/f9e7M3Vzf9d3t7OxO2Nnv/y2WtxJVBIGmLast8/xjk4qifhXeCm9JUbJ1meOeQveim/c31/TfJycnJ09v1INGpxDW5bOAxckTTOb5CdG3N4eOVaE3lMWb1x9enIT6cJ39aKH96f1Jmr59d+i4PWY9T+VycvLs/aFj92h1uwULkCnKzGH0ZDuXoJ05dAwfpYgxtlVPDh3Hx6h3mVhOTm4PHclHqKc5uHw4dCQfny7/mYPLs0PH8vHpJgeWk5O9DZmZ3nBajPkk6G0uLum2sjcrCxrNrdIOLx+sUCDOpQphzbzwOjlR2xqGUbnY4Y0PRddXubi8Tg2giiKauvnJkCcYF9XBh6Pw+hifKKc+r7nL1hr5ud/3cJSvGjt5nhpAjAtCKzPv2yNcplEuzQwuNXzdzvu6B6R/O88HJjWABC6okxfMl3LxjpWL+e8v83FJ7cEkcUH9nK8vuCTo8vr6uow+5uOSOnxJuUzHoCkD4+WLQsElosubJ2/fBE3+n9D6z7m4vE0LiXJRNCxzSQ4H9Krmjcoz14hYAqrunc7b+o5cSoZ3OiqPXLNEDw29jq/7um4YxhFY27dPqRX23TfBZ+UC8yItLMaFaUWafpxKenlBro7nwhOa2ydn7Xo3Nxe1XW6ywjg+hSe8SN3ZvsMEOozCAWTMBX18kaPxT5u7jHIhx5ugMCgXYoujsRuscSRB83CpNaUnpsYRcvk2TOyXHfxJ3/9HNpe06f4olxFJuACDKyXbpkGuR5MzzqUaBs65VCKPOOrRcRFnjc8/km9a//kqq8j8Z0pwES76hhQP1rcI1cLXzTiWKJezcPhgwrgofuSZ6tFxkVKbVGSBvv9hO5nz/0oJjnJpW1hz0mVHrqKRNEUDr07rIGhj1BXL8P7ZJIVLTMAFCozTO63VbXJuo1hOs0netmgG2uTuzH6dkmeNzz/xr//vH062kDn/U0p4if2XToOeH+Pai9RoQd2jEAMKNStwujLNz0XpD2mBmJOTuL0iZaa3z/S6L0Wmwa7+J/z+7z+fpKJ5if43ueVP5DJnBcMgN5XxQQDjDP9zxh7egQuXSuwGTOmIxmGi05NXvwop8OrHoNAkoDm/+j/0/+dPk0b7k7icKoqB/5m4VawZPhopRidMU5DMpZTFpYR7KTaDfFRcrqNpfvUXKRFe/fj56vxchBMc/PB9YE2fJxplcS5jLzjdTkjfoWLhv+EozQ5ctCq92iSWhQUnj4iLEhvYP//rN3I6rH/68a+fX55TvfjhE26hfwJUT2PBxbl4cDpqjREeViQdE7kMrQqV5XAu9WhgR8fldbyWevm3pGz6auP89OoVZ/Z3XITeRIMT7eQ1/nea1BvHF2gpyigvQv9lyrjEMR8dFzWhVT///E3sw6P6RKq26EyMyIX2JF2FtS+L4UBQmbUvBns4NxdiUy96y373WLkkToWdX33KILNmEwKRqkzqV5Jk7wQ2rEaqIC/y7hY+y0Y1k+2xBC6ku08G2drHykX5OQEMkHm1jctnbgnIjb/EhfYtoEEYCskXGMp0RPmUnB3ig9Igb3nBteKEDLEZQsCktpzsJZUOoDdJYIKuy+ePqYXm99BA+0UaUZfHYWh33wgHXJa1iud2kaPj640OPd1zq3woMicXRNZX1AQudNjMv6jVZ/p+0+w+lLb0NUj7zx+TSs2v34mdGmmOTOZCzSaoqOZyEGvSablAcWVz0YlF0arOB5Q84aIKoRjKw9dlconBaK5e/vaPX1+t+fd+87dPkeFmaY4sMm45DVNtFkn+inj/blyUQewhUkHax8Vl+7Kx8/Orq6vvPv/226fffv/95VVsQPMXsd8f4UJrGV+4RGXTGZhIOcrHRWtGHyJc9C4/cRxcEroxMTrncr8/lDhSNpK50CkThNfiVXyeas1wcV6bnZ3UOzKX2PqxsF+p8RIzJCNvpPQpRu/IuCi3v2SRSZXIxSuPQPzYIsd04tisDnzfHp7Kg/Dt0cDulT1Vqc8Duey0egpPlr3wRhefIEiN06G9nM11ZY5fwDEY83JvUHatO0yaw+oy0yEpRb8UDv771btsl6Qk/XzoeB+91PcvsjHEVLjC7l/Xf6AyK9z670PXT3csM+lr+wvdqa5f72KapS/tL3TXurzZtreCpGdFLXavun2dOjYjlZYCy73r9kkmmqJtOYxub96m92meFRssHVK3N0+fxwyBf755UmyucHhd3r57/+Hp22+fP3/+89MP79/dZpcUvdFo7OKLTKVWy3jwTPNGAy1+te0OKrnDavyxKOxD7fL863DIsfjw/m6CFZgw1dhCaN2IXYV5ttxu4DgKeV0I9ytYhDDIvu0eRMbhd168XYKnYES5j1c1R1VnUwZ5RHzVcqzrLxmut0Mc80ptzJn/1enXMvNAZ3RnOz/IJmu+nAtdkJHujclk0qxw19ogtKT/wnS5E6+W71/MCWnnuNTo6pgv50KnRxeZ9bq1Jy5C3aUO0MTbwyt2VhehJqzan2ffGhVpqb+YC8xCn83ytEft/XNhX3VowYIhF+qHs+x7k/XFXGAt0xyisMq68164fB2ycRW2Smp2tUqtItduenAm1iZSLqrliSFEuARXU5eJBVHo6BAMyppSTuDS9jwrXv81KjUelmrVouEaFc8Ss1I6F82qeQn2iO7FwrxbNUiUoLUb8pO9oK5XLLJKounxuNCFmOsZsd3O6KIN4KJWiAd5k6eayEWtEo+kYaKdY5IozEXjoyw2eD1sLhpIFKls2KYDNk8kiKPiUfdo4FUjn9HjrzZPqbM7qsJ1VQrWwOh5NC7oWpQRq9saG3ByqxMn+t4eHUOhyQ26fyq8ieegICE6ZR5XGktxYb4NX9kKuWyW/NKaJpHARXiyqsQ1IwUF290s50tcAkN+YSRxCeOIbPokcBmyk11D4f+z5VEtIZCOkcyF5lBd8OqhrW/DQajFF/Lk76DtLARFg34iz+s9Ka4kMfGi7+mgR3IQlHqBi6Q6DiPkcipejFcXsE4dNywz/mwiF9kfWotFk1STQ+ncdBC7gZTcMSlFC20LF2MtXiGuoA1Huh3lH9HYTRcMB0RnxXIr/uAWZDCvyb7IR2hCYlGziee4xKUzhxxcw7kR50zOBa+fhcVJjVFITRDciHMjJLxDTyZwUQxDBwthBFuXQHnFq0Jx1ViHFOzg2GMuUGmVaHbYeCwOxHmghvp1XNgs8F4bQbCGDs/QYDkXbcOia+A34QVdhMsAEgRv+bH4YgLJgjaC0GgJ9IELy9iQ6lWSq7klXdHZE+wO3jbNWOIyLiVwgPHIRTzcEm2kV7jVZwExL4IELorc7leE/Kq2WByAC6148ZJ1auLp4Zt5bQ0VY5P8K3wv5wJFra8KEYfWBHOh6aB1UO5tjnaUGUaoJsStx3IfjacffFgnFgeBSyc022zKg3FxkQC0jmL2lBW+tx7+m4NLX0qVMS3WQ4G8j0Ijs4ziZnuPe4AkcBGoKYQxlDfgwp124NNOlX1oFuZQdYNYFSxxARe/sYo//Ew2mkUuodFp0C9gXFZSt2QFPoGSlmHi4aqeWD7ZXEwkuf/XKP4hD4LbNPx6tOcTfP2amJYJXKpyYeiTCElcdLSnbg8kxKKkY2lDxM0licuUHOCKuz+68LjBmcwFFxiFc9EXYE9aVO0higz4GMH1li5EgSReNpeLSCWCSM9Y5FIXuEg9H+jzGPgl6Vxssp0EE7zuIsJFRXvyeIMuAzc64J8m+SSJS5McNPhmSose+dgULtC6NziXBK9zyeqHumC9FqLQwaezuUB+FrtDLdIIi1wuErlYNnndpNzbwqW0kkdALJJr74dLzAUCefh8EhelIdic+CNSuECCmZyLFefiiVGIO/7jlMzmUo5w6ZHYZJaXkfSyVC7aWJ6Tgup5dE9cEtLMZt8Y5xLUSe6s1yRuKzAqnsKlTFKGcjGDzNkS92kuz8TykuCUbrNAtnNxkTxntIIdgbK5YB+eWc2qubOtXMDCE4fr6Ej2vXCBAuBWuLwJ+9QULjguJa1O70vh0iQVCuWiTrbuzgONUT2MArZ9gQdw4WEmcvGQ1JCXaNJmcQnMSofiLC23tS/wUmFEb07Cug8uMDQm9YsGiPaetnABQZJcpHGp0O9i9lgPbZkLBaOqFY0CmJ6ukKTJXMAPV3j0lMQpiwtke261b233Iya9Q8K9Dy5VFDEdIdJjOsAR5yKUGYT7wQKXNc9ZOpgHlhJyAYj9aF+SaYQi8z5Ada0Qs5b3VfuJ/Reoh/hwGx6kgbdkcKkgoRuzlQt097s8Q0FEobt6D1zw3u3y2PsqzOMxLu0p/x5q54j9/RZtNNpNFlc+DgNVVY++pzGSCEGfaS1HASLl0f45fSGkCeViCriMbgjJ6jDAGVzEABTJHpsKN+I7oOZy6GfhCVWI6D1wgYwcqfkhKr6SyAXGVm0892JWaeUjjY+tB55ledhkc3ClxrngErRw26ZpVR3ki2Dk2QUsl0YBhzSzzPaFj0IueE3BvN1u11U6TN2aW22vx+2FzPYF8s0IUljz+mG7D7mhDMGWhHFLHIWl17bcJs8l98DFRrGRFRhsge5FAhdiOHVWfTwyOYHPSRlPnpo8UUiGb5OeD+2kiBxaKDYVptGc2ZiID3EubAi5C2kv+UefERpZXLBlMbF7PjHQKRe+0aomcCktxfDJgMv+uUCJjm0DAllkhr++K/b34cAUYnmGv2ZFuZwFAYXD60MtTBQ6PWGEjy5Gwuw5tGetaNMD94Lx0eb92BGcolyo4zPqkCHhcDKFTWUNtnDBSRtuD9ETTBI/gUuAi/uyO7ROhewicbnzX+SY+7YfG3O3+rY9KCkj3+7x9BrY9MCs2tMOmpwtPXJtGIQAf2e+vVTN2arTcVZl3jnxfLvPLSpz1Ao+aNqbS42JmxSFShAF/OVatRUky2ZgKVXfttmDJdefTsZnZRIFtd6brpHjV3kDHdzbZ1y8vt1n8TH7tk+yiTkM+mDdVa8GSWCzrumF3Zw4reBDDdv2+WCkPuo7qDtdXrC+lLa0fb6cSu0LBweVZpips/SqYTS2LDTSTWPnlVCGmfQ6TRen5rdFKUUlw0zYe14OluuPxLtQoUKFChUqVKhQoUKFChV6+NLq1VF1XnSK9y+jvsO6W7qQ4YH/uM5XpJLTDHW25DsmwtKPpHX3yWIj7wWXu1IJRTQgg3lZXDRPOMDzGc1hb1JwuSvFuNAFIFu5qOWFtJJ1uVPhKpRDwGUyr47K5eFwSfxBYCHydi6w3k1cVzXO40ZcaBcBl3F4iGdlgcd2Lk2ZyySoxQoud6oIFwwGXJO2c5kWXPasKBe8VtiMcimZlil6tDfllXibmHe3YVkJ7q1a2yqJ91Q4zFK7XfR9RMW4wAqZtshFqw3JT7V18Dot1d84zhqh9dhxnE7F6DoOLI5YB0cOXbBScvHCiG6Zz+0ONs5Uw2vOg1s0x9kMFRevdSE+xC5eXjHdnwPpw1MmF9GHFFYf8Z98xfJkR1RsJ89DV1G2IMEPqNawXzVwCf70+S9ZjBSdexR8bdsaHFBRLmq0HpPcMCYN9rugjIvs2gJcpN8Uoct5YNME+pM+hIsgVwA9jEfwkSrKBZZeQ9PBuXhBal3opZLu0gJgVSwvYNME/6+Kps3r9YugJDjB3zmMj2F3er9u6GTdJSkCpHTMTLVkaZRLVS+pdLsD1LNUtYLvOZ6fT/hCAZewi6hzL+6wfZmzphqKBvElK0Xa/UnY7uOu/1z4ny9P5ku1MRc69oZ/2JfaF7OiJgsFXNZ9qhaua/y0fqWN6JLHLf2XPhK882EtpcOe5OvktLB+w+iYp5yBYv6wj1fxcRjyw0hJXFzOJbX/YiJptS5Uap5CuHDjDLjwterdgAuzloO7Jkfw8293oiiXTTVh3NJoW7CesZ7NRXIlIphgnXGQ4t1kLo6ww8ZAdDZ55AIui9mQqHxqsd5dyEUfrYJ0X29ap6PsemwYrrrHosUnncu44JKoWP+FinO5WEjlKaO8BEm7Easiuh1PwWVXZXHBNpXv1ublnsBll/ICy/0LLrsqi0s/NHDxlnAZ5WUuty8a6fIUXHZWFhckbFxXzy4vkusiMQOAasFlV2VwKYndkRz2mLxBJTihr+FCwWVX5SgvPP/z/gv098WHBC7QHk2ofxbeTQb3/QsuuypP+0LG3zWXt/uKD/0SXWtYJLHFeTHoSnZHZkPTTze8k1lw2VVZXMiPGVTd6mAR2mN0b/DJmrbx0nwlsdsWxJV4RQbXCi67qoTC/SRF8f5LnXddunx8jGxZiLjt1ZHmkYUNWtkwpC9unRDl0hS4rAsuRKXFeJy0ybixGG/IPhJtH49mdgZGbTLu0M6JVsZzmLQlWY3H4lYJ5ghvuNQJXZGXzngactmMHT5ufDZ2+KPDdWfzNfyIxEORZlUq7di6inZwMvURw6pYO0/YlxqNRG/gQoUKFSpUqFChQoUKPUj9C99UYVxo28/6AAAAAElFTkSuQmCC;" parent="KnM2JCht_f167LQaXZ46-11" vertex="1">
          <mxGeometry x="170" y="80.16000000000008" width="360" height="109.68" as="geometry" />
        </mxCell>
        <mxCell id="uM8lYK9Wjvyg9yVoM1x_-42" value="&lt;font style=&quot;font-size: 21px;&quot;&gt;&lt;b&gt;Ec2 Server (Dev)&lt;/b&gt;&lt;/font&gt;" style="text;html=1;align=center;verticalAlign=middle;whiteSpace=wrap;rounded=0;" parent="KnM2JCht_f167LQaXZ46-9" vertex="1">
          <mxGeometry x="174.92000000000007" y="373.33000000000004" width="225" height="30" as="geometry" />
        </mxCell>
        <mxCell id="KnM2JCht_f167LQaXZ46-21" value="VPC" style="points=[[0,0],[0.25,0],[0.5,0],[0.75,0],[1,0],[1,0.25],[1,0.5],[1,0.75],[1,1],[0.75,1],[0.5,1],[0.25,1],[0,1],[0,0.75],[0,0.5],[0,0.25]];outlineConnect=0;gradientColor=none;html=1;whiteSpace=wrap;fontSize=12;fontStyle=0;container=1;pointerEvents=0;collapsible=0;recursiveResize=0;shape=mxgraph.aws4.group;grIcon=mxgraph.aws4.group_vpc2;strokeColor=#8C4FFF;fillColor=none;verticalAlign=top;align=left;spacingLeft=30;fontColor=#AAB7B8;dashed=0;" vertex="1" parent="1">
          <mxGeometry x="2100" y="540" width="610" height="360" as="geometry" />
        </mxCell>
        <mxCell id="KnM2JCht_f167LQaXZ46-22" value="Private subnet" style="points=[[0,0],[0.25,0],[0.5,0],[0.75,0],[1,0],[1,0.25],[1,0.5],[1,0.75],[1,1],[0.75,1],[0.5,1],[0.25,1],[0,1],[0,0.75],[0,0.5],[0,0.25]];outlineConnect=0;gradientColor=none;html=1;whiteSpace=wrap;fontSize=12;fontStyle=0;container=1;pointerEvents=0;collapsible=0;recursiveResize=0;shape=mxgraph.aws4.group;grIcon=mxgraph.aws4.group_security_group;grStroke=0;strokeColor=#00A4A6;fillColor=#E6F6F7;verticalAlign=top;align=left;spacingLeft=30;fontColor=#147EBA;dashed=0;" vertex="1" parent="KnM2JCht_f167LQaXZ46-21">
          <mxGeometry x="50" y="50" width="530" height="270" as="geometry" />
        </mxCell>
        <mxCell id="KnM2JCht_f167LQaXZ46-23" value="" style="sketch=0;points=[[0,0,0],[0.25,0,0],[0.5,0,0],[0.75,0,0],[1,0,0],[0,1,0],[0.25,1,0],[0.5,1,0],[0.75,1,0],[1,1,0],[0,0.25,0],[0,0.5,0],[0,0.75,0],[1,0.25,0],[1,0.5,0],[1,0.75,0]];outlineConnect=0;fontColor=#232F3E;fillColor=#ED7100;strokeColor=#ffffff;dashed=0;verticalLabelPosition=bottom;verticalAlign=top;align=center;html=1;fontSize=12;fontStyle=0;aspect=fixed;shape=mxgraph.aws4.resourceIcon;resIcon=mxgraph.aws4.ec2;" vertex="1" parent="KnM2JCht_f167LQaXZ46-22">
          <mxGeometry x="21" y="80" width="122.25" height="122.25" as="geometry" />
        </mxCell>
        <mxCell id="KnM2JCht_f167LQaXZ46-31" value="" style="shape=image;verticalLabelPosition=bottom;labelBackgroundColor=default;verticalAlign=top;aspect=fixed;imageAspect=0;image=data:image/png,iVBORw0KGgoAAAANSUhEUgAAAZcAAAB8CAMAAACSTA3KAAABIFBMVEX///8AAADuAAD39/f6+vqKior09PTt7e3m5ubNzc2ZmZm8vLzi4uKzs7Pw8PA9PT1LS0vc3NwdHR0QEBBra2tSUlJycnLU1NReXl4rKyt+fn6QkJAyMjIhISE3NzehoaHHx8dbW1uBgYGsrKwVFRWenp5OTk72AAC6urptbW1EREQLCwsmJib+9PTvDQ3+7e0AFRX6wMD2h4f1fHzwOzvyU1PvGhrbHBwAHx/3n5/xSEjzbm76ysr719f3rKzzY2P2k5OkbGwWAABsGxs/AACDJSXPFhYvGxvCGhrgkZG6ISGeNzeTHR07ICBiJyetJibGenoyEhKiAABvKSl8FxehHR1AMTFFHx9PMDDzZ2fwLCxQHh6hKSmBCwupLS3vIyOVNn7xAAATAklEQVR4nO2dd2OjSJrGKQsBklAOgBIgyUHB9rhzck/f9e7M3Vzf9d3t7OxO2Nnv/y2WtxJVBIGmLast8/xjk4qifhXeCm9JUbJ1meOeQveim/c31/TfJycnJ09v1INGpxDW5bOAxckTTOb5CdG3N4eOVaE3lMWb1x9enIT6cJ39aKH96f1Jmr59d+i4PWY9T+VycvLs/aFj92h1uwULkCnKzGH0ZDuXoJ05dAwfpYgxtlVPDh3Hx6h3mVhOTm4PHclHqKc5uHw4dCQfny7/mYPLs0PH8vHpJgeWk5O9DZmZ3nBajPkk6G0uLum2sjcrCxrNrdIOLx+sUCDOpQphzbzwOjlR2xqGUbnY4Y0PRddXubi8Tg2giiKauvnJkCcYF9XBh6Pw+hifKKc+r7nL1hr5ud/3cJSvGjt5nhpAjAtCKzPv2yNcplEuzQwuNXzdzvu6B6R/O88HJjWABC6okxfMl3LxjpWL+e8v83FJ7cEkcUH9nK8vuCTo8vr6uow+5uOSOnxJuUzHoCkD4+WLQsElosubJ2/fBE3+n9D6z7m4vE0LiXJRNCxzSQ4H9Krmjcoz14hYAqrunc7b+o5cSoZ3OiqPXLNEDw29jq/7um4YxhFY27dPqRX23TfBZ+UC8yItLMaFaUWafpxKenlBro7nwhOa2ydn7Xo3Nxe1XW6ywjg+hSe8SN3ZvsMEOozCAWTMBX18kaPxT5u7jHIhx5ugMCgXYoujsRuscSRB83CpNaUnpsYRcvk2TOyXHfxJ3/9HNpe06f4olxFJuACDKyXbpkGuR5MzzqUaBs65VCKPOOrRcRFnjc8/km9a//kqq8j8Z0pwES76hhQP1rcI1cLXzTiWKJezcPhgwrgofuSZ6tFxkVKbVGSBvv9hO5nz/0oJjnJpW1hz0mVHrqKRNEUDr07rIGhj1BXL8P7ZJIVLTMAFCozTO63VbXJuo1hOs0netmgG2uTuzH6dkmeNzz/xr//vH062kDn/U0p4if2XToOeH+Pai9RoQd2jEAMKNStwujLNz0XpD2mBmJOTuL0iZaa3z/S6L0Wmwa7+J/z+7z+fpKJ5if43ueVP5DJnBcMgN5XxQQDjDP9zxh7egQuXSuwGTOmIxmGi05NXvwop8OrHoNAkoDm/+j/0/+dPk0b7k7icKoqB/5m4VawZPhopRidMU5DMpZTFpYR7KTaDfFRcrqNpfvUXKRFe/fj56vxchBMc/PB9YE2fJxplcS5jLzjdTkjfoWLhv+EozQ5ctCq92iSWhQUnj4iLEhvYP//rN3I6rH/68a+fX55TvfjhE26hfwJUT2PBxbl4cDpqjREeViQdE7kMrQqV5XAu9WhgR8fldbyWevm3pGz6auP89OoVZ/Z3XITeRIMT7eQ1/nea1BvHF2gpyigvQv9lyrjEMR8dFzWhVT///E3sw6P6RKq26EyMyIX2JF2FtS+L4UBQmbUvBns4NxdiUy96y373WLkkToWdX33KILNmEwKRqkzqV5Jk7wQ2rEaqIC/y7hY+y0Y1k+2xBC6ku08G2drHykX5OQEMkHm1jctnbgnIjb/EhfYtoEEYCskXGMp0RPmUnB3ig9Igb3nBteKEDLEZQsCktpzsJZUOoDdJYIKuy+ePqYXm99BA+0UaUZfHYWh33wgHXJa1iud2kaPj640OPd1zq3woMicXRNZX1AQudNjMv6jVZ/p+0+w+lLb0NUj7zx+TSs2v34mdGmmOTOZCzSaoqOZyEGvSablAcWVz0YlF0arOB5Q84aIKoRjKw9dlconBaK5e/vaPX1+t+fd+87dPkeFmaY4sMm45DVNtFkn+inj/blyUQewhUkHax8Vl+7Kx8/Orq6vvPv/226fffv/95VVsQPMXsd8f4UJrGV+4RGXTGZhIOcrHRWtGHyJc9C4/cRxcEroxMTrncr8/lDhSNpK50CkThNfiVXyeas1wcV6bnZ3UOzKX2PqxsF+p8RIzJCNvpPQpRu/IuCi3v2SRSZXIxSuPQPzYIsd04tisDnzfHp7Kg/Dt0cDulT1Vqc8Duey0egpPlr3wRhefIEiN06G9nM11ZY5fwDEY83JvUHatO0yaw+oy0yEpRb8UDv771btsl6Qk/XzoeB+91PcvsjHEVLjC7l/Xf6AyK9z670PXT3csM+lr+wvdqa5f72KapS/tL3TXurzZtreCpGdFLXavun2dOjYjlZYCy73r9kkmmqJtOYxub96m92meFRssHVK3N0+fxwyBf755UmyucHhd3r57/+Hp22+fP3/+89MP79/dZpcUvdFo7OKLTKVWy3jwTPNGAy1+te0OKrnDavyxKOxD7fL863DIsfjw/m6CFZgw1dhCaN2IXYV5ttxu4DgKeV0I9ytYhDDIvu0eRMbhd168XYKnYES5j1c1R1VnUwZ5RHzVcqzrLxmut0Mc80ptzJn/1enXMvNAZ3RnOz/IJmu+nAtdkJHujclk0qxw19ogtKT/wnS5E6+W71/MCWnnuNTo6pgv50KnRxeZ9bq1Jy5C3aUO0MTbwyt2VhehJqzan2ffGhVpqb+YC8xCn83ytEft/XNhX3VowYIhF+qHs+x7k/XFXGAt0xyisMq68164fB2ycRW2Smp2tUqtItduenAm1iZSLqrliSFEuARXU5eJBVHo6BAMyppSTuDS9jwrXv81KjUelmrVouEaFc8Ss1I6F82qeQn2iO7FwrxbNUiUoLUb8pO9oK5XLLJKounxuNCFmOsZsd3O6KIN4KJWiAd5k6eayEWtEo+kYaKdY5IozEXjoyw2eD1sLhpIFKls2KYDNk8kiKPiUfdo4FUjn9HjrzZPqbM7qsJ1VQrWwOh5NC7oWpQRq9saG3ByqxMn+t4eHUOhyQ26fyq8ieegICE6ZR5XGktxYb4NX9kKuWyW/NKaJpHARXiyqsQ1IwUF290s50tcAkN+YSRxCeOIbPokcBmyk11D4f+z5VEtIZCOkcyF5lBd8OqhrW/DQajFF/Lk76DtLARFg34iz+s9Ka4kMfGi7+mgR3IQlHqBi6Q6DiPkcipejFcXsE4dNywz/mwiF9kfWotFk1STQ+ncdBC7gZTcMSlFC20LF2MtXiGuoA1Huh3lH9HYTRcMB0RnxXIr/uAWZDCvyb7IR2hCYlGziee4xKUzhxxcw7kR50zOBa+fhcVJjVFITRDciHMjJLxDTyZwUQxDBwthBFuXQHnFq0Jx1ViHFOzg2GMuUGmVaHbYeCwOxHmghvp1XNgs8F4bQbCGDs/QYDkXbcOia+A34QVdhMsAEgRv+bH4YgLJgjaC0GgJ9IELy9iQ6lWSq7klXdHZE+wO3jbNWOIyLiVwgPHIRTzcEm2kV7jVZwExL4IELorc7leE/Kq2WByAC6148ZJ1auLp4Zt5bQ0VY5P8K3wv5wJFra8KEYfWBHOh6aB1UO5tjnaUGUaoJsStx3IfjacffFgnFgeBSyc022zKg3FxkQC0jmL2lBW+tx7+m4NLX0qVMS3WQ4G8j0Ijs4ziZnuPe4AkcBGoKYQxlDfgwp124NNOlX1oFuZQdYNYFSxxARe/sYo//Ew2mkUuodFp0C9gXFZSt2QFPoGSlmHi4aqeWD7ZXEwkuf/XKP4hD4LbNPx6tOcTfP2amJYJXKpyYeiTCElcdLSnbg8kxKKkY2lDxM0licuUHOCKuz+68LjBmcwFFxiFc9EXYE9aVO0higz4GMH1li5EgSReNpeLSCWCSM9Y5FIXuEg9H+jzGPgl6Vxssp0EE7zuIsJFRXvyeIMuAzc64J8m+SSJS5McNPhmSose+dgULtC6NziXBK9zyeqHumC9FqLQwaezuUB+FrtDLdIIi1wuErlYNnndpNzbwqW0kkdALJJr74dLzAUCefh8EhelIdic+CNSuECCmZyLFefiiVGIO/7jlMzmUo5w6ZHYZJaXkfSyVC7aWJ6Tgup5dE9cEtLMZt8Y5xLUSe6s1yRuKzAqnsKlTFKGcjGDzNkS92kuz8TykuCUbrNAtnNxkTxntIIdgbK5YB+eWc2qubOtXMDCE4fr6Ej2vXCBAuBWuLwJ+9QULjguJa1O70vh0iQVCuWiTrbuzgONUT2MArZ9gQdw4WEmcvGQ1JCXaNJmcQnMSofiLC23tS/wUmFEb07Cug8uMDQm9YsGiPaetnABQZJcpHGp0O9i9lgPbZkLBaOqFY0CmJ6ukKTJXMAPV3j0lMQpiwtke261b233Iya9Q8K9Dy5VFDEdIdJjOsAR5yKUGYT7wQKXNc9ZOpgHlhJyAYj9aF+SaYQi8z5Ada0Qs5b3VfuJ/Reoh/hwGx6kgbdkcKkgoRuzlQt097s8Q0FEobt6D1zw3u3y2PsqzOMxLu0p/x5q54j9/RZtNNpNFlc+DgNVVY++pzGSCEGfaS1HASLl0f45fSGkCeViCriMbgjJ6jDAGVzEABTJHpsKN+I7oOZy6GfhCVWI6D1wgYwcqfkhKr6SyAXGVm0892JWaeUjjY+tB55ledhkc3ClxrngErRw26ZpVR3ki2Dk2QUsl0YBhzSzzPaFj0IueE3BvN1u11U6TN2aW22vx+2FzPYF8s0IUljz+mG7D7mhDMGWhHFLHIWl17bcJs8l98DFRrGRFRhsge5FAhdiOHVWfTwyOYHPSRlPnpo8UUiGb5OeD+2kiBxaKDYVptGc2ZiID3EubAi5C2kv+UefERpZXLBlMbF7PjHQKRe+0aomcCktxfDJgMv+uUCJjm0DAllkhr++K/b34cAUYnmGv2ZFuZwFAYXD60MtTBQ6PWGEjy5Gwuw5tGetaNMD94Lx0eb92BGcolyo4zPqkCHhcDKFTWUNtnDBSRtuD9ETTBI/gUuAi/uyO7ROhewicbnzX+SY+7YfG3O3+rY9KCkj3+7x9BrY9MCs2tMOmpwtPXJtGIQAf2e+vVTN2arTcVZl3jnxfLvPLSpz1Ao+aNqbS42JmxSFShAF/OVatRUky2ZgKVXfttmDJdefTsZnZRIFtd6brpHjV3kDHdzbZ1y8vt1n8TH7tk+yiTkM+mDdVa8GSWCzrumF3Zw4reBDDdv2+WCkPuo7qDtdXrC+lLa0fb6cSu0LBweVZpips/SqYTS2LDTSTWPnlVCGmfQ6TRen5rdFKUUlw0zYe14OluuPxLtQoUKFChUqVKhQoUKFChV6+NLq1VF1XnSK9y+jvsO6W7qQ4YH/uM5XpJLTDHW25DsmwtKPpHX3yWIj7wWXu1IJRTQgg3lZXDRPOMDzGc1hb1JwuSvFuNAFIFu5qOWFtJJ1uVPhKpRDwGUyr47K5eFwSfxBYCHydi6w3k1cVzXO40ZcaBcBl3F4iGdlgcd2Lk2ZyySoxQoud6oIFwwGXJO2c5kWXPasKBe8VtiMcimZlil6tDfllXibmHe3YVkJ7q1a2yqJ91Q4zFK7XfR9RMW4wAqZtshFqw3JT7V18Dot1d84zhqh9dhxnE7F6DoOLI5YB0cOXbBScvHCiG6Zz+0ONs5Uw2vOg1s0x9kMFRevdSE+xC5eXjHdnwPpw1MmF9GHFFYf8Z98xfJkR1RsJ89DV1G2IMEPqNawXzVwCf70+S9ZjBSdexR8bdsaHFBRLmq0HpPcMCYN9rugjIvs2gJcpN8Uoct5YNME+pM+hIsgVwA9jEfwkSrKBZZeQ9PBuXhBal3opZLu0gJgVSwvYNME/6+Kps3r9YugJDjB3zmMj2F3er9u6GTdJSkCpHTMTLVkaZRLVS+pdLsD1LNUtYLvOZ6fT/hCAZewi6hzL+6wfZmzphqKBvElK0Xa/UnY7uOu/1z4ny9P5ku1MRc69oZ/2JfaF7OiJgsFXNZ9qhaua/y0fqWN6JLHLf2XPhK882EtpcOe5OvktLB+w+iYp5yBYv6wj1fxcRjyw0hJXFzOJbX/YiJptS5Uap5CuHDjDLjwterdgAuzloO7Jkfw8293oiiXTTVh3NJoW7CesZ7NRXIlIphgnXGQ4t1kLo6ww8ZAdDZ55AIui9mQqHxqsd5dyEUfrYJ0X29ap6PsemwYrrrHosUnncu44JKoWP+FinO5WEjlKaO8BEm7Easiuh1PwWVXZXHBNpXv1ublnsBll/ICy/0LLrsqi0s/NHDxlnAZ5WUuty8a6fIUXHZWFhckbFxXzy4vkusiMQOAasFlV2VwKYndkRz2mLxBJTihr+FCwWVX5SgvPP/z/gv098WHBC7QHk2ofxbeTQb3/QsuuypP+0LG3zWXt/uKD/0SXWtYJLHFeTHoSnZHZkPTTze8k1lw2VVZXMiPGVTd6mAR2mN0b/DJmrbx0nwlsdsWxJV4RQbXCi67qoTC/SRF8f5LnXddunx8jGxZiLjt1ZHmkYUNWtkwpC9unRDl0hS4rAsuRKXFeJy0ybixGG/IPhJtH49mdgZGbTLu0M6JVsZzmLQlWY3H4lYJ5ghvuNQJXZGXzngactmMHT5ufDZ2+KPDdWfzNfyIxEORZlUq7di6inZwMvURw6pYO0/YlxqNRG/gQoUKFSpUqFChQoUKPUj9C99UYVxo28/6AAAAAElFTkSuQmCC;" vertex="1" parent="KnM2JCht_f167LQaXZ46-22">
          <mxGeometry x="170" y="80.16000000000008" width="360" height="109.68" as="geometry" />
        </mxCell>
        <mxCell id="KnM2JCht_f167LQaXZ46-26" value="&lt;font style=&quot;font-size: 21px;&quot;&gt;&lt;b&gt;Ec2 Server (Prod)&lt;/b&gt;&lt;/font&gt;" style="text;html=1;align=center;verticalAlign=middle;whiteSpace=wrap;rounded=0;" vertex="1" parent="1">
          <mxGeometry x="2292.5" y="900" width="225" height="30" as="geometry" />
        </mxCell>
      </root>
    </mxGraphModel>
  </diagram>
</mxfile>
